<svg xmlns="http://www.w3.org/2000/svg" xmlns:xlink="http://www.w3.org/1999/xlink" width="2000" zoomAndPan="magnify" viewBox="0 0 1500 225" height="300" preserveAspectRatio="xMidYMid meet" version="1.0"><defs><g/><clipPath id="69c6a37766"><rect x="0" width="1090" y="0" height="90"/></clipPath><clipPath id="569a47b8ed"><path d="M 189 0 L 358.5 0 L 358.5 224.617188 L 189 224.617188 Z M 189 0 " clip-rule="nonzero"/></clipPath></defs><g transform="matrix(1, 0, 0, 1, 366, 67)"><g clip-path="url(#69c6a37766)"><g fill="#000000" fill-opacity="1"><g transform="translate(1.1919, 72.091854)"><g><path d="M 56.921875 0 L 33.828125 0 L 0.625 -59.25 L 25.828125 -59.25 L 45.40625 -16.890625 L 64.9375 -59.25 L 90.140625 -59.25 Z M 56.921875 0 "/></g></g></g><g fill="#000000" fill-opacity="1"><g transform="translate(84.517722, 72.091854)"><g><path d="M 44.828125 1.28125 C 30.171875 1.28125 19.390625 -1.734375 12.484375 -7.765625 C 6.367188 -13.109375 3.3125 -20.394531 3.3125 -29.625 C 3.3125 -38.820312 6.367188 -46.09375 12.484375 -51.4375 C 19.390625 -57.46875 30.171875 -60.484375 44.828125 -60.484375 C 59.472656 -60.484375 70.253906 -57.46875 77.171875 -51.4375 C 83.285156 -46.09375 86.34375 -38.820312 86.34375 -29.625 C 86.34375 -20.394531 83.285156 -13.109375 77.171875 -7.765625 C 70.253906 -1.734375 59.472656 1.28125 44.828125 1.28125 Z M 44.828125 -14.625 C 50.828125 -14.625 55.234375 -16.34375 58.046875 -19.78125 C 60.304688 -22.570312 61.4375 -25.851562 61.4375 -29.625 C 61.4375 -33.394531 60.304688 -36.65625 58.046875 -39.40625 C 55.234375 -42.882812 50.828125 -44.625 44.828125 -44.625 C 38.816406 -44.625 34.394531 -42.882812 31.5625 -39.40625 C 29.300781 -36.65625 28.171875 -33.394531 28.171875 -29.625 C 28.171875 -25.851562 29.300781 -22.570312 31.5625 -19.78125 C 34.394531 -16.34375 38.816406 -14.625 44.828125 -14.625 Z M 44.828125 -14.625 "/></g></g></g><g fill="#000000" fill-opacity="1"><g transform="translate(174.164889, 72.091854)"><g><path d="M 31.484375 0 L 6.609375 0 L 6.609375 -59.28125 L 31.484375 -59.28125 Z M 31.484375 0 "/></g></g></g><g fill="#000000" fill-opacity="1"><g transform="translate(212.254597, 72.091854)"><g><path d="M 44.828125 1.28125 C 30.171875 1.28125 19.390625 -1.734375 12.484375 -7.765625 C 6.367188 -13.078125 3.3125 -20.347656 3.3125 -29.578125 C 3.3125 -38.804688 6.367188 -46.09375 12.484375 -51.4375 C 19.390625 -57.4375 30.171875 -60.4375 44.828125 -60.4375 C 53.421875 -60.4375 60.523438 -59.453125 66.140625 -57.484375 C 71.753906 -55.515625 76.117188 -52.820312 79.234375 -49.40625 C 82.347656 -45.988281 84.414062 -42.078125 85.4375 -37.671875 L 59.28125 -37.671875 C 56.664062 -42.273438 51.847656 -44.578125 44.828125 -44.578125 C 38.816406 -44.578125 34.394531 -42.84375 31.5625 -39.375 C 29.300781 -36.613281 28.171875 -33.347656 28.171875 -29.578125 C 28.171875 -25.804688 29.300781 -22.539062 31.5625 -19.78125 C 34.394531 -16.3125 38.816406 -14.578125 44.828125 -14.578125 C 51.847656 -14.578125 56.664062 -16.894531 59.28125 -21.53125 L 85.4375 -21.53125 C 84.414062 -17.09375 82.347656 -13.164062 79.234375 -9.75 C 76.117188 -6.332031 71.753906 -3.640625 66.140625 -1.671875 C 60.523438 0.296875 53.421875 1.28125 44.828125 1.28125 Z M 44.828125 1.28125 "/></g></g></g><g fill="#000000" fill-opacity="1"><g transform="translate(300.992877, 72.091854)"><g><path d="M 78 0 L 6.609375 0 L 6.609375 -59.28125 L 74.734375 -59.28125 L 74.734375 -44.625 L 31.484375 -44.625 L 31.484375 -35.328125 L 68.046875 -35.328125 L 68.046875 -23.921875 L 31.484375 -23.921875 L 31.484375 -14.671875 L 78 -14.671875 Z M 78 0 "/></g></g></g><g fill="#000000" fill-opacity="1"><g transform="translate(382.295003, 72.091854)"><g/></g></g><g fill="#000000" fill-opacity="1"><g transform="translate(403.281542, 72.091854)"><g><path d="M 119.3125 0 L 94.4375 0 L 94.4375 -37.796875 L 72.21875 0 L 53.671875 0 L 31.484375 -37.796875 L 31.484375 0 L 6.609375 0 L 6.609375 -59.28125 L 36.15625 -59.28125 L 62.96875 -16.9375 L 89.734375 -59.28125 L 119.3125 -59.28125 Z M 119.3125 0 "/></g></g></g><g fill="#000000" fill-opacity="1"><g transform="translate(529.200717, 72.091854)"><g><path d="M 31.484375 0 L 6.609375 0 L 6.609375 -59.28125 L 31.484375 -59.28125 Z M 31.484375 0 "/></g></g></g><g fill="#000000" fill-opacity="1"><g transform="translate(567.290397, 72.091854)"><g><path d="M 87.546875 0 L 64.03125 0 C 62.957031 -1.488281 62.203125 -3.390625 61.765625 -5.703125 C 61.378906 -7.492188 60.800781 -9.25 60.03125 -10.96875 C 59.257812 -12.6875 57.929688 -14.117188 56.046875 -15.265625 C 54.160156 -16.410156 51.359375 -17.023438 47.640625 -17.109375 L 31.484375 -17.109375 L 31.484375 0 L 6.609375 0 L 6.609375 -59.28125 L 47.0625 -59.28125 C 56.726562 -59.28125 64.523438 -58.554688 70.453125 -57.109375 C 76.390625 -55.671875 80.722656 -53.398438 83.453125 -50.296875 C 86.179688 -47.203125 87.546875 -43.160156 87.546875 -38.171875 C 87.546875 -34.015625 86.597656 -30.515625 84.703125 -27.671875 C 82.816406 -24.835938 79.835938 -22.597656 75.765625 -20.953125 C 79.703125 -19.328125 82.253906 -17.375 83.421875 -15.09375 C 84.597656 -12.820312 85.320312 -10.328125 85.59375 -7.609375 C 85.875 -5.179688 86.523438 -2.644531 87.546875 0 Z M 31.484375 -31.734375 L 45.6875 -31.765625 C 49.65625 -31.765625 52.78125 -31.941406 55.0625 -32.296875 C 57.351562 -32.660156 59.039062 -33.148438 60.125 -33.765625 C 61.21875 -34.390625 61.914062 -35.078125 62.21875 -35.828125 C 62.519531 -36.585938 62.671875 -37.367188 62.671875 -38.171875 C 62.671875 -38.972656 62.519531 -39.757812 62.21875 -40.53125 C 61.914062 -41.300781 61.21875 -41.992188 60.125 -42.609375 C 59.039062 -43.234375 57.351562 -43.722656 55.0625 -44.078125 C 52.78125 -44.441406 49.65625 -44.625 45.6875 -44.625 L 31.484375 -44.625 Z M 31.484375 -31.734375 "/></g></g></g><g fill="#000000" fill-opacity="1"><g transform="translate(658.135641, 72.091854)"><g><path d="M 87.546875 0 L 64.03125 0 C 62.957031 -1.488281 62.203125 -3.390625 61.765625 -5.703125 C 61.378906 -7.492188 60.800781 -9.25 60.03125 -10.96875 C 59.257812 -12.6875 57.929688 -14.117188 56.046875 -15.265625 C 54.160156 -16.410156 51.359375 -17.023438 47.640625 -17.109375 L 31.484375 -17.109375 L 31.484375 0 L 6.609375 0 L 6.609375 -59.28125 L 47.0625 -59.28125 C 56.726562 -59.28125 64.523438 -58.554688 70.453125 -57.109375 C 76.390625 -55.671875 80.722656 -53.398438 83.453125 -50.296875 C 86.179688 -47.203125 87.546875 -43.160156 87.546875 -38.171875 C 87.546875 -34.015625 86.597656 -30.515625 84.703125 -27.671875 C 82.816406 -24.835938 79.835938 -22.597656 75.765625 -20.953125 C 79.703125 -19.328125 82.253906 -17.375 83.421875 -15.09375 C 84.597656 -12.820312 85.320312 -10.328125 85.59375 -7.609375 C 85.875 -5.179688 86.523438 -2.644531 87.546875 0 Z M 31.484375 -31.734375 L 45.6875 -31.765625 C 49.65625 -31.765625 52.78125 -31.941406 55.0625 -32.296875 C 57.351562 -32.660156 59.039062 -33.148438 60.125 -33.765625 C 61.21875 -34.390625 61.914062 -35.078125 62.21875 -35.828125 C 62.519531 -36.585938 62.671875 -37.367188 62.671875 -38.171875 C 62.671875 -38.972656 62.519531 -39.757812 62.21875 -40.53125 C 61.914062 -41.300781 61.21875 -41.992188 60.125 -42.609375 C 59.039062 -43.234375 57.351562 -43.722656 55.0625 -44.078125 C 52.78125 -44.441406 49.65625 -44.625 45.6875 -44.625 L 31.484375 -44.625 Z M 31.484375 -31.734375 "/></g></g></g><g fill="#000000" fill-opacity="1"><g transform="translate(748.980829, 72.091854)"><g><path d="M 44.828125 1.28125 C 30.171875 1.28125 19.390625 -1.734375 12.484375 -7.765625 C 6.367188 -13.109375 3.3125 -20.394531 3.3125 -29.625 C 3.3125 -38.820312 6.367188 -46.09375 12.484375 -51.4375 C 19.390625 -57.46875 30.171875 -60.484375 44.828125 -60.484375 C 59.472656 -60.484375 70.253906 -57.46875 77.171875 -51.4375 C 83.285156 -46.09375 86.34375 -38.820312 86.34375 -29.625 C 86.34375 -20.394531 83.285156 -13.109375 77.171875 -7.765625 C 70.253906 -1.734375 59.472656 1.28125 44.828125 1.28125 Z M 44.828125 -14.625 C 50.828125 -14.625 55.234375 -16.34375 58.046875 -19.78125 C 60.304688 -22.570312 61.4375 -25.851562 61.4375 -29.625 C 61.4375 -33.394531 60.304688 -36.65625 58.046875 -39.40625 C 55.234375 -42.882812 50.828125 -44.625 44.828125 -44.625 C 38.816406 -44.625 34.394531 -42.882812 31.5625 -39.40625 C 29.300781 -36.65625 28.171875 -33.394531 28.171875 -29.625 C 28.171875 -25.851562 29.300781 -22.570312 31.5625 -19.78125 C 34.394531 -16.34375 38.816406 -14.625 44.828125 -14.625 Z M 44.828125 -14.625 "/></g></g></g><g fill="#000000" fill-opacity="1"><g transform="translate(838.628014, 72.091854)"><g><path d="M 87.546875 0 L 64.03125 0 C 62.957031 -1.488281 62.203125 -3.390625 61.765625 -5.703125 C 61.378906 -7.492188 60.800781 -9.25 60.03125 -10.96875 C 59.257812 -12.6875 57.929688 -14.117188 56.046875 -15.265625 C 54.160156 -16.410156 51.359375 -17.023438 47.640625 -17.109375 L 31.484375 -17.109375 L 31.484375 0 L 6.609375 0 L 6.609375 -59.28125 L 47.0625 -59.28125 C 56.726562 -59.28125 64.523438 -58.554688 70.453125 -57.109375 C 76.390625 -55.671875 80.722656 -53.398438 83.453125 -50.296875 C 86.179688 -47.203125 87.546875 -43.160156 87.546875 -38.171875 C 87.546875 -34.015625 86.597656 -30.515625 84.703125 -27.671875 C 82.816406 -24.835938 79.835938 -22.597656 75.765625 -20.953125 C 79.703125 -19.328125 82.253906 -17.375 83.421875 -15.09375 C 84.597656 -12.820312 85.320312 -10.328125 85.59375 -7.609375 C 85.875 -5.179688 86.523438 -2.644531 87.546875 0 Z M 31.484375 -31.734375 L 45.6875 -31.765625 C 49.65625 -31.765625 52.78125 -31.941406 55.0625 -32.296875 C 57.351562 -32.660156 59.039062 -33.148438 60.125 -33.765625 C 61.21875 -34.390625 61.914062 -35.078125 62.21875 -35.828125 C 62.519531 -36.585938 62.671875 -37.367188 62.671875 -38.171875 C 62.671875 -38.972656 62.519531 -39.757812 62.21875 -40.53125 C 61.914062 -41.300781 61.21875 -41.992188 60.125 -42.609375 C 59.039062 -43.234375 57.351562 -43.722656 55.0625 -44.078125 C 52.78125 -44.441406 49.65625 -44.625 45.6875 -44.625 L 31.484375 -44.625 Z M 31.484375 -31.734375 "/></g></g></g><g fill="#000000" fill-opacity="1"><g transform="translate(929.473202, 72.091854)"><g/></g></g><g fill="#000000" fill-opacity="1"><g transform="translate(950.459741, 72.091854)"><g><path d="M 99.5625 0 L 74.359375 0 L 68.78125 -9.703125 L 31.390625 -9.703125 L 25.828125 0 L 0.625 0 L 38.546875 -59.25 L 61.640625 -59.25 Z M 60.40625 -24.375 L 50.109375 -42.34375 L 39.78125 -24.375 Z M 60.40625 -24.375 "/></g></g></g><g fill="#000000" fill-opacity="1"><g transform="translate(1050.641445, 72.091854)"><g><path d="M 31.484375 0 L 6.609375 0 L 6.609375 -59.28125 L 31.484375 -59.28125 Z M 31.484375 0 "/></g></g></g></g></g><path fill="#12100c" d="M 11.890625 139.542969 L 11.890625 163.367188 C 11.890625 165.902344 13.945312 167.945312 16.46875 167.945312 C 18.992188 167.945312 21.042969 165.902344 21.042969 163.367188 L 21.042969 139.542969 C 21.042969 137.019531 18.992188 134.964844 16.46875 134.964844 C 13.945312 134.964844 11.890625 137.019531 11.890625 139.542969 Z M 11.890625 139.542969 " fill-opacity="1" fill-rule="evenodd"/><path fill="#12100c" d="M 4.59375 112.972656 C 7.117188 112.972656 9.167969 110.921875 9.167969 108.394531 L 9.167969 96.683594 L 20.871094 96.683594 C 23.402344 96.683594 25.445312 94.640625 25.445312 92.105469 C 25.445312 89.574219 23.402344 87.53125 20.871094 87.53125 L 4.59375 87.53125 C 2.066406 87.53125 0.015625 89.582031 0.015625 92.105469 L 0.015625 108.394531 C 0.015625 110.921875 2.066406 112.972656 4.59375 112.972656 Z M 4.59375 112.972656 " fill-opacity="1" fill-rule="evenodd"/><path fill="#12100c" d="M 20.863281 206.226562 L 9.160156 206.226562 L 9.160156 194.527344 C 9.160156 192 7.109375 189.949219 4.585938 189.949219 C 2.058594 189.949219 0.0078125 192 0.0078125 194.527344 L 0.0078125 210.804688 C 0.0078125 213.339844 2.058594 215.382812 4.585938 215.382812 L 20.863281 215.382812 C 23.394531 215.382812 25.4375 213.339844 25.4375 210.804688 C 25.4375 208.273438 23.394531 206.226562 20.863281 206.226562 Z M 20.863281 206.226562 " fill-opacity="1" fill-rule="evenodd"/><path fill="#12100c" d="M 28.109375 171.492188 C 28.109375 174.019531 30.152344 176.070312 32.683594 176.070312 C 35.21875 176.070312 37.261719 174.019531 37.261719 171.492188 L 37.261719 131.425781 C 37.261719 128.894531 35.210938 126.847656 32.683594 126.847656 C 30.160156 126.847656 28.109375 128.894531 28.109375 131.425781 Z M 28.109375 171.492188 " fill-opacity="1" fill-rule="evenodd"/><path fill="#12100c" d="M 44.308594 110.082031 L 44.308594 192.832031 C 44.308594 195.363281 46.359375 197.410156 48.886719 197.410156 C 51.410156 197.410156 53.460938 195.363281 53.460938 192.832031 L 53.460938 110.082031 C 53.460938 107.554688 51.417969 105.503906 48.886719 105.503906 C 46.351562 105.503906 44.308594 107.554688 44.308594 110.082031 Z M 44.308594 110.082031 " fill-opacity="1" fill-rule="evenodd"/><path fill="#12100c" d="M 60.511719 121.808594 L 60.511719 181.113281 C 60.511719 183.640625 62.554688 185.691406 65.085938 185.691406 C 67.621094 185.691406 69.664062 183.640625 69.664062 181.113281 L 69.664062 121.808594 C 69.664062 119.273438 67.613281 117.230469 65.085938 117.230469 C 62.5625 117.230469 60.511719 119.273438 60.511719 121.808594 Z M 60.511719 121.808594 " fill-opacity="1" fill-rule="evenodd"/><path fill="#12100c" d="M 76.710938 103.710938 L 76.710938 199.210938 C 76.710938 201.734375 78.761719 203.785156 81.289062 203.785156 C 83.8125 203.785156 85.863281 201.734375 85.863281 199.210938 L 85.863281 103.710938 C 85.863281 101.179688 83.820312 99.132812 81.289062 99.132812 C 78.753906 99.132812 76.710938 101.179688 76.710938 103.710938 Z M 76.710938 103.710938 " fill-opacity="1" fill-rule="evenodd"/><path fill="#12100c" d="M 92.929688 121.808594 L 92.929688 181.113281 C 92.929688 183.640625 94.980469 185.691406 97.503906 185.691406 C 100.027344 185.691406 102.082031 183.640625 102.082031 181.113281 L 102.082031 121.808594 C 102.082031 119.273438 100.027344 117.230469 97.503906 117.230469 C 94.980469 117.230469 92.929688 119.273438 92.929688 121.808594 Z M 92.929688 121.808594 " fill-opacity="1" fill-rule="evenodd"/><path fill="#12100c" d="M 109.128906 110.082031 L 109.128906 192.832031 C 109.128906 195.363281 111.171875 197.410156 113.707031 197.410156 C 116.238281 197.410156 118.28125 195.363281 118.28125 192.832031 L 118.28125 110.082031 C 118.28125 107.554688 116.230469 105.503906 113.707031 105.503906 C 111.179688 105.503906 109.128906 107.554688 109.128906 110.082031 Z M 109.128906 110.082031 " fill-opacity="1" fill-rule="evenodd"/><path fill="#12100c" d="M 125.335938 131.425781 L 125.335938 171.492188 C 125.335938 174.019531 127.390625 176.070312 129.914062 176.070312 C 132.4375 176.070312 134.492188 174.019531 134.492188 171.492188 L 134.492188 131.425781 C 134.492188 128.894531 132.4375 126.847656 129.914062 126.847656 C 127.390625 126.847656 125.335938 128.894531 125.335938 131.425781 Z M 125.335938 131.425781 " fill-opacity="1" fill-rule="evenodd"/><path fill="#12100c" d="M 141.539062 139.542969 L 141.539062 163.367188 C 141.539062 165.902344 143.582031 167.945312 146.117188 167.945312 C 148.648438 167.945312 150.691406 165.902344 150.691406 163.367188 L 150.691406 139.542969 C 150.691406 137.019531 148.640625 134.964844 146.117188 134.964844 C 143.589844 134.964844 141.539062 137.019531 141.539062 139.542969 Z M 141.539062 139.542969 " fill-opacity="1" fill-rule="evenodd"/><path fill="#12100c" d="M 153.421875 96.683594 L 153.421875 108.394531 C 153.421875 110.921875 155.46875 112.972656 158 112.972656 C 160.53125 112.972656 162.574219 110.921875 162.574219 108.394531 L 162.574219 92.105469 C 162.574219 89.582031 160.523438 87.53125 158 87.53125 L 141.714844 87.53125 C 139.191406 87.53125 137.136719 89.582031 137.136719 92.105469 C 137.136719 94.632812 139.191406 96.683594 141.714844 96.683594 Z M 153.421875 96.683594 " fill-opacity="1" fill-rule="evenodd"/><path fill="#12100c" d="M 158.007812 189.949219 C 155.472656 189.949219 153.429688 192 153.429688 194.527344 L 153.429688 206.226562 L 141.722656 206.226562 C 139.195312 206.226562 137.144531 208.28125 137.144531 210.804688 C 137.144531 213.332031 139.195312 215.382812 141.722656 215.382812 L 158.007812 215.382812 C 160.53125 215.382812 162.582031 213.339844 162.582031 210.804688 L 162.582031 194.527344 C 162.582031 192 160.53125 189.949219 158.007812 189.949219 Z M 158.007812 189.949219 " fill-opacity="1" fill-rule="evenodd"/><g clip-path="url(#569a47b8ed)"><path fill="#12100c" d="M 214.941406 144.074219 C 218.570312 145.007812 221.179688 147.964844 221.582031 151.605469 C 222.011719 155.375 220.074219 158.859375 216.65625 160.5 L 208.183594 164.542969 C 210.601562 169.664062 209.691406 176.199219 208.746094 183.042969 L 208.722656 183.203125 C 208.355469 185.890625 209.386719 188.652344 211.285156 190.085938 C 212.742188 191.183594 214.421875 191.3125 216.289062 190.480469 L 240.875 179.566406 C 242.382812 178.808594 244.136719 178.070312 246.039062 177.328125 C 246.105469 177.300781 246.183594 177.277344 246.25 177.246094 C 247.890625 176.613281 249.636719 175.972656 251.429688 175.324219 C 261.789062 171.53125 275.976562 166.351562 275.304688 158.699219 C 275.082031 156.183594 276.945312 153.960938 279.460938 153.742188 C 281.996094 153.527344 284.207031 155.382812 284.429688 157.898438 C 285.703125 172.46875 267.898438 179.046875 254.769531 183.84375 C 262.871094 196.707031 268.828125 210.386719 272.511719 224.605469 L 347.738281 224.605469 C 339.5 206.585938 334.550781 192.113281 332.269531 179.472656 C 326.097656 145.183594 333.734375 133.988281 342.582031 121.027344 C 347.273438 114.15625 352.125 107.050781 355.53125 95.121094 C 361.070312 75.734375 357.578125 56.785156 355.824219 49.53125 C 352.0625 34.050781 344.519531 25.476562 333.566406 16.671875 C 311.246094 -1.277344 293.054688 -2.476562 267.296875 1.589844 C 240.269531 5.855469 227.105469 10.058594 214.472656 32.359375 C 211.972656 36.773438 210.621094 41.902344 209.058594 47.835938 C 208.105469 51.46875 207.113281 55.214844 205.757812 59.25 C 204.4375 63.15625 202.972656 67.121094 201.4375 71.171875 L 206.113281 76.375 C 209.996094 80.695312 210.554688 86.914062 207.496094 91.847656 C 202.492188 99.925781 196.144531 107.792969 190.074219 115.148438 C 189.730469 115.566406 189.625 115.941406 189.699219 116.472656 C 189.8125 117.265625 190.089844 117.429688 190.1875 117.488281 L 196.382812 121.164062 C 201.636719 124.285156 203.773438 130.65625 201.46875 136.316406 L 199.890625 140.199219 Z M 214.941406 144.074219 " fill-opacity="1" fill-rule="evenodd"/></g></svg>
